<svg width="30" height="30" viewBox="0 0 30 30" fill="none" xmlns="http://www.w3.org/2000/svg">
<path d="M24.22 15.52L10.9713 24.3525C10.8771 24.4152 10.7678 24.4511 10.6549 24.4565C10.5419 24.4619 10.4297 24.4366 10.33 24.3832C10.2303 24.3298 10.147 24.2504 10.0889 24.1535C10.0308 24.0565 10.0001 23.9456 10 23.8325V6.16752C10.0001 6.05447 10.0308 5.94355 10.0889 5.84658C10.147 5.7496 10.2303 5.67021 10.33 5.61685C10.4297 5.56349 10.5419 5.53816 10.6549 5.54356C10.7678 5.54896 10.8771 5.58489 10.9713 5.64752L24.22 14.48C24.3056 14.5371 24.3758 14.6144 24.4243 14.7051C24.4729 14.7958 24.4983 14.8971 24.4983 15C24.4983 15.1029 24.4729 15.2042 24.4243 15.2949C24.3758 15.3856 24.3056 15.4629 24.22 15.52Z" fill="#072D4B"/>
</svg>
